<svg xmlns="http://www.w3.org/2000/svg" width="600" height="750" viewBox="0 0 600 750">
  <defs>
    <linearGradient id="bg" x1="0" y1="0" x2="1" y2="1">
      <stop offset="0%" stop-color="#102744"/>
      <stop offset="100%" stop-color="#20537d"/>
    </linearGradient>
  </defs>
  <rect width="600" height="750" fill="url(#bg)"/>
  <rect x="250" y="60" width="20" height="190" rx="8" fill="#1c232d"/>
  <rect x="290" y="45" width="20" height="205" rx="8" fill="#333a44"/>
  <rect x="145" y="170" width="310" height="490" rx="24" fill="#1f2631"/>
  <rect x="188" y="220" width="224" height="110" rx="8" fill="#8fd3ff"/>
  <rect x="188" y="352" width="224" height="190" rx="12" fill="#131820"/>
  <g fill="#293241">
    <rect x="205" y="370" width="38" height="28" rx="4"/>
    <rect x="250" y="370" width="38" height="28" rx="4"/>
    <rect x="295" y="370" width="38" height="28" rx="4"/>
    <rect x="340" y="370" width="38" height="28" rx="4"/>
    <rect x="205" y="406" width="38" height="28" rx="4"/>
    <rect x="250" y="406" width="38" height="28" rx="4"/>
    <rect x="295" y="406" width="38" height="28" rx="4"/>
    <rect x="340" y="406" width="38" height="28" rx="4"/>
    <rect x="205" y="442" width="38" height="28" rx="4"/>
    <rect x="250" y="442" width="38" height="28" rx="4"/>
    <rect x="295" y="442" width="38" height="28" rx="4"/>
    <rect x="340" y="442" width="38" height="28" rx="4"/>
  </g>
  <text x="300" y="700" fill="#d9ebff" font-family="Arial, sans-serif" font-size="38" text-anchor="middle">FT-65</text>
</svg>
