<svg xmlns="http://www.w3.org/2000/svg" width="600" height="750" viewBox="0 0 600 750">
  <defs>
    <linearGradient id="bg" x1="0" y1="0" x2="1" y2="1">
      <stop offset="0%" stop-color="#0b1d35"/>
      <stop offset="100%" stop-color="#114f7d"/>
    </linearGradient>
  </defs>
  <rect width="600" height="750" fill="url(#bg)"/>
  <rect x="245" y="55" width="22" height="195" rx="8" fill="#1f252d"/>
  <rect x="290" y="70" width="14" height="180" rx="6" fill="#2f343c"/>
  <rect x="145" y="165" width="310" height="500" rx="20" fill="#252c38"/>
  <rect x="185" y="215" width="230" height="108" rx="10" fill="#31a9ff"/>
  <rect x="185" y="340" width="230" height="48" rx="8" fill="#111822"/>
  <rect x="185" y="402" width="230" height="140" rx="10" fill="#151e2a"/>
  <g fill="#2a3443">
    <circle cx="220" cy="430" r="15"/>
    <circle cx="260" cy="430" r="15"/>
    <circle cx="300" cy="430" r="15"/>
    <circle cx="340" cy="430" r="15"/>
    <circle cx="380" cy="430" r="15"/>
    <circle cx="220" cy="470" r="15"/>
    <circle cx="260" cy="470" r="15"/>
    <circle cx="300" cy="470" r="15"/>
    <circle cx="340" cy="470" r="15"/>
    <circle cx="380" cy="470" r="15"/>
  </g>
  <text x="300" y="700" fill="#d9ebff" font-family="Arial, sans-serif" font-size="34" text-anchor="middle">MD-UV390</text>
</svg>
