<svg xmlns="http://www.w3.org/2000/svg" width="600" height="750" viewBox="0 0 600 750">
  <defs>
    <linearGradient id="bg" x1="0" y1="0" x2="1" y2="1">
      <stop offset="0%" stop-color="#0e243f"/>
      <stop offset="100%" stop-color="#19426f"/>
    </linearGradient>
  </defs>
  <rect width="600" height="750" fill="url(#bg)"/>
  <rect x="240" y="70" width="18" height="180" rx="8" fill="#1b1f25"/>
  <rect x="270" y="55" width="24" height="195" rx="10" fill="#2a2f36"/>
  <rect x="150" y="180" width="300" height="470" rx="28" fill="#222934"/>
  <rect x="195" y="230" width="210" height="95" rx="10" fill="#4aa9ff"/>
  <rect x="195" y="350" width="210" height="26" rx="6" fill="#171d25"/>
  <rect x="195" y="385" width="210" height="26" rx="6" fill="#171d25"/>
  <rect x="195" y="420" width="210" height="26" rx="6" fill="#171d25"/>
  <rect x="195" y="455" width="210" height="26" rx="6" fill="#171d25"/>
  <rect x="195" y="490" width="210" height="26" rx="6" fill="#171d25"/>
  <rect x="250" y="555" width="100" height="70" rx="12" fill="#151b22"/>
  <text x="300" y="700" fill="#d9ebff" font-family="Arial, sans-serif" font-size="38" text-anchor="middle">UV-5R</text>
</svg>
